<?xml version="1.0" standalone="no"?>
<!DOCTYPE svg PUBLIC "-//W3C//DTD SVG 20010904//EN"
 "http://www.w3.org/TR/2001/REC-SVG-20010904/DTD/svg10.dtd">
<svg version="1.0" xmlns="http://www.w3.org/2000/svg"
 width="404.000000pt" height="404.000000pt" viewBox="0 0 404.000000 404.000000"
 preserveAspectRatio="xMidYMid meet">
<metadata>
Created by potrace 1.14, written by Peter Selinger 2001-2017
</metadata>
<g transform="translate(0.000000,404.000000) scale(0.100000,-0.100000)"
fill="#000000" stroke="none">
<path d="M2188 3804 c-2 -1 -21 -5 -43 -8 -89 -14 -200 -63 -280 -124 -48 -36
-158 -162 -149 -171 2 -2 -3 -13 -13 -23 -9 -10 -13 -18 -8 -18 4 0 3 -6 -2
-12 -17 -22 -35 -105 -37 -165 -5 -132 45 -267 135 -364 l47 -51 36 70 36 71
-23 28 c-118 143 -104 345 32 481 48 48 148 106 201 117 102 22 156 24 235 12
172 -27 315 -143 359 -291 12 -38 14 -140 4 -186 -16 -73 -114 -194 -191 -235
-33 -17 -40 -28 -63 -100 -15 -44 -29 -86 -32 -94 -4 -11 -1 -11 15 -2 24 12
27 10 73 -69 l32 -54 -24 -19 c-81 -65 -120 -99 -176 -154 -51 -51 -61 -66
-53 -80 13 -25 81 -174 81 -178 0 -1 22 -49 49 -106 26 -57 63 -137 80 -178
30 -67 57 -127 131 -286 15 -33 76 -167 134 -297 59 -131 128 -284 155 -342
l49 -104 84 4 c129 5 265 33 368 74 64 25 206 98 223 114 7 6 30 23 52 37 87
58 235 219 290 315 18 31 17 33 -4 62 -11 17 -21 33 -21 36 0 4 -5 12 -11 19
-6 7 -52 75 -102 152 -51 77 -139 212 -197 300 -58 88 -107 165 -110 170 -12
24 -86 130 -92 133 -5 2 -8 8 -8 13 0 7 -280 441 -307 475 -4 5 -13 19 -19 30
-14 24 -32 24 -114 3 -135 -36 -170 -47 -249 -82 l-81 -35 -30 53 c-16 29 -30
57 -30 63 0 6 16 20 35 32 72 45 182 192 200 267 3 10 9 36 14 58 9 35 8 154
-2 195 -2 8 -7 30 -11 49 -17 71 -90 181 -158 236 -27 22 -55 45 -62 51 -17
16 -90 53 -140 71 -40 14 -49 16 -111 29 -30 7 -192 13 -197 8z m918 -1221
c21 -38 46 -84 57 -103 11 -19 39 -72 63 -116 l44 -81 -27 -14 c-63 -32 -248
-133 -253 -138 -3 -3 -48 -28 -100 -55 -52 -27 -102 -55 -111 -62 -8 -8 -20
-14 -25 -14 -5 0 -26 -11 -46 -25 -38 -26 -39 -26 -64 20 -6 11 -48 86 -92
167 -45 80 -82 150 -82 155 0 5 53 37 118 73 64 35 133 73 152 84 19 10 73 40
120 64 47 25 87 49 90 53 3 4 18 11 33 14 15 4 27 10 27 15 0 6 37 28 52 29 3
1 23 -29 44 -66z m267 -486 c21 -39 46 -85 56 -102 72 -122 99 -183 85 -189
-8 -3 -17 -5 -20 -5 -4 0 -10 -3 -13 -8 -3 -5 -42 -29 -86 -52 -44 -24 -102
-56 -130 -71 -27 -15 -77 -42 -110 -60 -33 -18 -64 -35 -70 -40 -5 -4 -44 -25
-86 -48 l-76 -41 -22 42 c-11 23 -37 71 -57 107 -20 36 -52 94 -71 130 -20 36
-39 70 -44 76 -6 7 -4 16 6 24 8 7 15 9 15 5 0 -4 7 -1 16 6 18 15 38 26 104
60 24 12 85 46 135 74 50 29 136 76 191 105 54 29 103 56 108 61 16 15 32 -2
69 -74z"/>
<path d="M2970 2427 c-19 -11 -66 -36 -103 -56 -74 -39 -80 -43 -150 -84 l-47
-28 26 -49 c19 -36 30 -47 42 -43 17 7 314 171 320 178 2 2 -9 26 -24 53 l-29
49 -35 -20z"/>
<path d="M3200 1940 c-30 -17 -71 -38 -90 -48 -19 -9 -37 -20 -40 -23 -3 -4
-30 -19 -60 -34 -84 -42 -83 -40 -55 -96 14 -27 28 -49 32 -49 3 0 36 17 72
37 36 21 89 50 116 66 28 15 62 33 78 40 15 6 27 15 27 19 0 4 9 8 20 8 11 0
20 3 20 8 1 16 -46 101 -55 101 -5 0 -35 -13 -65 -29z"/>
<path d="M1160 3741 c-53 -20 -89 -55 -160 -160 -74 -109 -167 -242 -186 -264
-8 -10 -20 -29 -26 -43 -6 -13 -15 -24 -20 -24 -4 0 -8 -7 -8 -15 0 -8 -4 -15
-8 -15 -5 0 -27 -28 -50 -62 -23 -35 -56 -83 -73 -108 -132 -185 -138 -196
-135 -253 3 -54 23 -105 54 -143 10 -12 180 -104 378 -205 197 -101 463 -236
589 -301 298 -152 292 -150 346 -153 90 -6 169 49 199 136 10 30 62 180 115
334 170 496 195 574 195 615 0 44 -35 124 -66 151 -11 9 -80 48 -155 86 -103
52 -140 67 -150 59 -48 -37 -56 -138 -18 -211 22 -45 43 -64 104 -100 16 -9 8
-29 -76 -197 l-94 -186 -45 22 c-172 85 -496 252 -498 258 -2 5 -9 8 -15 8 -7
0 -76 33 -154 73 l-141 72 37 75 c20 41 63 125 95 187 l57 112 129 -64 c141
-71 133 -71 146 1 3 15 19 60 36 100 17 41 29 75 27 77 -2 1 -71 35 -153 76
-162 80 -200 89 -276 62z"/>
<path d="M768 2207 c-103 -203 -110 -219 -101 -227 22 -21 567 -289 573 -283
18 19 169 327 165 334 -3 4 -96 53 -206 109 -110 56 -239 121 -285 145 l-84
44 -62 -122z"/>
<path d="M684 1747 c-11 -23 -90 -179 -176 -347 -85 -168 -230 -451 -320 -630
l-165 -325 23 -70 c12 -38 25 -69 30 -68 4 0 65 113 134 250 70 136 205 401
300 588 96 187 182 357 192 378 10 20 20 37 23 37 2 0 33 -15 69 -32 l64 -33
-163 -320 c-390 -766 -486 -955 -482 -955 2 0 37 12 78 26 41 14 79 27 84 28
47 10 125 42 125 51 0 6 -11 45 -25 85 -14 40 -25 77 -25 81 0 6 29 20 50 24
45 8 120 41 120 53 0 9 -12 49 -26 90 -14 41 -23 76 -20 79 2 3 43 17 90 32
l85 26 -23 68 -23 69 92 181 c217 426 254 501 252 502 -1 1 -79 41 -173 88
l-171 86 -19 -42z"/>
</g>
</svg>
